<svg xmlns="http://www.w3.org/2000/svg" width="45" height="45" viewBox="0 0 45 45"><path fill="#FFF" fill-rule="evenodd" d="M18.1783219,33.9469524 C13.1478781,30.7221785 10.4653138,24.3938903 12.4176754,18.0951033 C14.5911933,11.0827968 21.7231318,7.08570481 28.865243,8.78496737 C34.3107366,10.0807772 37.4824085,14.4003465 36.659023,19.5996586 C36.0022678,23.7466975 32.3042558,26.4911124 28.2406338,25.8473783 C25.48686,25.4113726 23.7263572,23.1640002 24.1117025,20.7316865 C24.4769056,18.4259223 26.5547993,16.8477159 28.86036,17.2127156 C29.2139662,17.2686659 29.5370539,17.3612383 29.7858803,17.4458759 C29.9693974,17.5083368 30.171429,17.4418068 30.2764122,17.2788387 L31.5707978,15.2725614 C31.6955162,15.079075 31.6310207,14.8223138 31.4283787,14.7128546 C30.9293017,14.4426653 30.1175132,14.0884488 29.0691057,13.9222255 C24.690941,13.2288482 20.6598719,16.2261586 19.9664947,20.6039163 C19.348396,24.5053841 21.9296394,29.5649221 27.8103248,30.4963426 C34.5943539,31.5707925 40.9549916,27.3149048 42.0477525,20.4149059 C43.5289105,11.063265 36.5507846,2.85280759 26.0077067,1.95475383 C15.1496794,1.02984392 5.05094896,8.24092665 2.50225857,18.8360892 C0.165976006,28.5472364 4.55248233,38.0842254 12.3932607,42.9539392 C12.9157351,43.2782477 13.6028052,43.1289111 13.9360657,42.61193 L18.5246036,35.4985061 C18.8623402,34.9750144 18.7030344,34.2832648 18.1783219,33.9469524"/></svg>